<?xml version="1.0" encoding="UTF-8" standalone="no"?>
<!-- Created with Inkscape (http://www.inkscape.org/) -->

<svg
   xmlns:dc="http://purl.org/dc/elements/1.1/"
   xmlns:cc="http://creativecommons.org/ns#"
   xmlns:rdf="http://www.w3.org/1999/02/22-rdf-syntax-ns#"
   xmlns:svg="http://www.w3.org/2000/svg"
   xmlns="http://www.w3.org/2000/svg"
   xmlns:sodipodi="http://sodipodi.sourceforge.net/DTD/sodipodi-0.dtd"
   xmlns:inkscape="http://www.inkscape.org/namespaces/inkscape"
   width="590.26733"
   height="470.43954"
   id="svg2"
   version="1.1"
   inkscape:version="0.48.4 r9939"
   sodipodi:docname="learning-curve.svg">
  <defs
     id="defs4" />
  <sodipodi:namedview
     id="base"
     pagecolor="#ffffff"
     bordercolor="#666666"
     borderopacity="1.0"
     inkscape:pageopacity="0.0"
     inkscape:pageshadow="2"
     inkscape:zoom="0.7"
     inkscape:cx="546.25894"
     inkscape:cy="219.63423"
     inkscape:document-units="px"
     inkscape:current-layer="layer1"
     showgrid="false"
     showguides="true"
     inkscape:guide-bbox="true"
     inkscape:window-width="1366"
     inkscape:window-height="744"
     inkscape:window-x="0"
     inkscape:window-y="24"
     inkscape:window-maximized="0"
     fit-margin-top="0"
     fit-margin-left="0"
     fit-margin-right="0"
     fit-margin-bottom="0" />
  <metadata
     id="metadata7">
    <rdf:RDF>
      <cc:Work
         rdf:about="">
        <dc:format>image/svg+xml</dc:format>
        <dc:type
           rdf:resource="http://purl.org/dc/dcmitype/StillImage" />
        <dc:title />
      </cc:Work>
    </rdf:RDF>
  </metadata>
  <g
     inkscape:label="Layer 1"
     inkscape:groupmode="layer"
     id="layer1"
     transform="translate(-72.139331,-17.77484)">
    <path
       style="opacity:0.92000002;fill:#000000;fill-opacity:1;stroke:#000000;stroke-width:0.1;stroke-linecap:round;stroke-linejoin:round;stroke-miterlimit:4;stroke-opacity:1;stroke-dasharray:none"
       id="path3771"
       d="m 79.321051,48.312815 c -0.03608,1.052005 -0.166337,2.104996 -0.108243,3.156016 0.345002,6.241612 1.299972,12.434529 1.931608,18.653676 0.609624,6.002412 1.233076,12.003805 1.765775,18.013532 1.832133,20.669481 2.126117,26.942821 3.542038,48.202011 1.985739,35.83338 3.544459,71.71 3.98286,107.60018 0.197607,16.17741 -0.0025,34.01235 -0.117486,50.23076 -0.325513,30.64192 -0.822119,61.28159 -1.091277,91.92409 -0.291631,23.21956 -1.294821,46.42992 -2.333472,69.62717 -0.09834,1.65896 -0.971249,15.06359 -0.845952,17.50526 0.09949,1.93872 -0.118627,4.13676 0.973111,5.74195 3.168885,4.65926 13.954587,4.95902 17.348827,5.18086 6.55513,0.42843 13.13678,0.19531 19.70517,0.29296 9.3246,-0.16122 18.65107,-0.23647 27.97379,-0.48365 6.07227,-0.16101 73.53263,-2.52601 76.49338,-2.62337 45.06762,-1.48199 90.13936,-2.61952 135.21904,-3.65426 37.52596,-1.02637 75.0623,-1.74542 112.57957,-3.07998 23.02563,-0.81907 46.04041,-1.97808 69.05783,-2.99616 13.75019,-0.53055 27.5381,-1.20592 41.28668,-0.19817 9.84136,0.72135 19.65304,2.32269 29.43226,3.60229 2.86556,0.33772 5.73112,0.67543 8.59668,1.01314 0,0 -5.83541,4.13334 -5.83541,4.13334 l 0,0 c -2.84871,-0.35304 -5.69743,-0.70609 -8.54614,-1.05913 -9.70483,-1.30812 -19.43086,-2.9212 -29.19773,-3.69698 -13.50331,-1.07255 -27.06081,-0.62559 -40.58019,-0.24608 -22.6481,0.77657 -45.29633,1.62996 -67.95149,2.17784 -37.15208,0.89848 -74.31574,1.28191 -111.46612,2.26533 -45.18673,0.97876 -90.35569,2.10943 -135.51979,3.88121 -105.76133,4.149 17.55745,-0.46246 -77.62756,3.44622 -9.56634,0.39283 -19.13729,0.66398 -28.70594,0.99598 -6.80293,0.0355 -13.61345,0.42981 -20.408799,0.1066 -4.453911,-0.21185 -14.888942,-0.16326 -18.432577,-5.57716 -1.100912,-1.68195 -0.789556,-3.96126 -0.848895,-5.9706 -0.05323,-1.80255 1.061646,-16.74655 1.125906,-17.65033 1.28685,-23.173 2.113258,-46.37623 2.304123,-69.5852 0.665501,-30.86826 1.788965,-61.72414 2.414939,-92.59335 0.278606,-18.99298 0.570455,-31.17544 0.373004,-50.3417 C 85.441122,210.44516 83.895412,174.58767 81.714666,138.79497 80.120031,118.16224 79.77611,111.03415 77.467723,90.987993 76.7868,85.074821 75.955567,79.179651 75.130214,73.284903 74.274436,67.172859 73.040059,61.11429 72.310073,54.98595 c -0.120158,-1.008747 -0.07216,-2.030474 -0.108242,-3.045711 0,0 7.11922,-3.627424 7.11922,-3.627424 z"
       inkscape:connector-curvature="0" />
    <path
       sodipodi:type="arc"
       id="path3849"
       style="fill:#000000;stroke:none"
       sodipodi:cx="176.7767"
       sodipodi:cy="276.56503"
       sodipodi:rx="1.5"
       sodipodi:ry="1.5"
       d="m 178.2767,276.56503 c 0,0.82843 -0.67157,1.5 -1.5,1.5 -0.82842,0 -1.5,-0.67157 -1.5,-1.5 0,-0.82842 0.67158,-1.5 1.5,-1.5 0.82843,0 1.5,0.67158 1.5,1.5 z" />
    <path
       sodipodi:type="arc"
       id="path3851"
       style="fill:#000000;stroke:none"
       sodipodi:cx="185.86807"
       sodipodi:cy="273.53458"
       sodipodi:rx="1.5"
       sodipodi:ry="1.5"
       d="m 187.36807,273.53458 c 0,0.82842 -0.67157,1.5 -1.5,1.5 -0.82842,0 -1.5,-0.67158 -1.5,-1.5 0,-0.82843 0.67158,-1.5 1.5,-1.5 0.82843,0 1.5,0.67157 1.5,1.5 z" />
    <path
       sodipodi:type="arc"
       id="path3853"
       style="fill:#000000;stroke:none"
       sodipodi:cx="176.7767"
       sodipodi:cy="282.62595"
       sodipodi:rx="1.5"
       sodipodi:ry="1.5"
       d="m 178.2767,282.62595 c 0,0.82842 -0.67157,1.5 -1.5,1.5 -0.82842,0 -1.5,-0.67158 -1.5,-1.5 0,-0.82843 0.67158,-1.5 1.5,-1.5 0.82843,0 1.5,0.67157 1.5,1.5 z" />
    <path
       sodipodi:type="arc"
       id="path3855"
       style="fill:#000000;stroke:none"
       sodipodi:cx="176.7767"
       sodipodi:cy="292.72748"
       sodipodi:rx="1.5"
       sodipodi:ry="1.5"
       d="m 178.2767,292.72748 c 0,0.82843 -0.67157,1.5 -1.5,1.5 -0.82842,0 -1.5,-0.67157 -1.5,-1.5 0,-0.82843 0.67158,-1.5 1.5,-1.5 0.82843,0 1.5,0.67157 1.5,1.5 z" />
    <path
       sodipodi:type="arc"
       id="path3857"
       style="fill:#000000;stroke:none"
       sodipodi:cx="175.76654"
       sodipodi:cy="300.80869"
       sodipodi:rx="1.5"
       sodipodi:ry="1.5"
       d="m 177.26654,300.80869 c 0,0.82842 -0.67157,1.5 -1.5,1.5 -0.82843,0 -1.5,-0.67158 -1.5,-1.5 0,-0.82843 0.67157,-1.5 1.5,-1.5 0.82843,0 1.5,0.67157 1.5,1.5 z" />
    <path
       sodipodi:type="arc"
       id="path3859"
       style="fill:#000000;stroke:none"
       sodipodi:cx="175.76654"
       sodipodi:cy="307.87976"
       sodipodi:rx="1.5"
       sodipodi:ry="1.5"
       d="m 177.26654,307.87976 c 0,0.82843 -0.67157,1.5 -1.5,1.5 -0.82843,0 -1.5,-0.67157 -1.5,-1.5 0,-0.82843 0.67157,-1.5 1.5,-1.5 0.82843,0 1.5,0.67157 1.5,1.5 z" />
    <path
       sodipodi:type="arc"
       id="path3861"
       style="fill:#000000;stroke:none"
       sodipodi:cx="174.75639"
       sodipodi:cy="317.98129"
       sodipodi:rx="1.5"
       sodipodi:ry="1.5"
       d="m 176.25639,317.98129 c 0,0.82843 -0.67157,1.5 -1.5,1.5 -0.82842,0 -1.5,-0.67157 -1.5,-1.5 0,-0.82842 0.67158,-1.5 1.5,-1.5 0.82843,0 1.5,0.67158 1.5,1.5 z" />
    <path
       sodipodi:type="arc"
       id="path3863"
       style="fill:#000000;stroke:none"
       sodipodi:cx="174.75639"
       sodipodi:cy="334.14371"
       sodipodi:rx="1.5"
       sodipodi:ry="1.5"
       d="m 176.25639,334.14371 c 0,0.82842 -0.67157,1.5 -1.5,1.5 -0.82842,0 -1.5,-0.67158 -1.5,-1.5 0,-0.82843 0.67158,-1.5 1.5,-1.5 0.82843,0 1.5,0.67157 1.5,1.5 z" />
    <path
       sodipodi:type="arc"
       id="path3865"
       style="fill:#000000;stroke:none"
       sodipodi:cx="174.75639"
       sodipodi:cy="343.23511"
       sodipodi:rx="1.5"
       sodipodi:ry="1.5"
       d="m 176.25639,343.23511 c 0,0.82842 -0.67157,1.5 -1.5,1.5 -0.82842,0 -1.5,-0.67158 -1.5,-1.5 0,-0.82843 0.67158,-1.5 1.5,-1.5 0.82843,0 1.5,0.67157 1.5,1.5 z" />
    <path
       sodipodi:type="arc"
       id="path3867"
       style="fill:#000000;stroke:none"
       sodipodi:cx="173.74625"
       sodipodi:cy="354.34677"
       sodipodi:rx="1.5"
       sodipodi:ry="1.5"
       d="m 175.24625,354.34677 c 0,0.82843 -0.67158,1.5 -1.5,1.5 -0.82843,0 -1.5,-0.67157 -1.5,-1.5 0,-0.82843 0.67157,-1.5 1.5,-1.5 0.82842,0 1.5,0.67157 1.5,1.5 z" />
    <path
       sodipodi:type="arc"
       id="path3869"
       style="fill:#000000;stroke:none"
       sodipodi:cx="174.75639"
       sodipodi:cy="369.49905"
       sodipodi:rx="1.5"
       sodipodi:ry="1.5"
       d="m 176.25639,369.49905 c 0,0.82843 -0.67157,1.5 -1.5,1.5 -0.82842,0 -1.5,-0.67157 -1.5,-1.5 0,-0.82842 0.67158,-1.5 1.5,-1.5 0.82843,0 1.5,0.67158 1.5,1.5 z" />
    <path
       sodipodi:type="arc"
       id="path3871"
       style="fill:#000000;stroke:none"
       sodipodi:cx="174.75639"
       sodipodi:cy="378.59042"
       sodipodi:rx="1.5"
       sodipodi:ry="1.5"
       d="m 176.25639,378.59042 c 0,0.82843 -0.67157,1.5 -1.5,1.5 -0.82842,0 -1.5,-0.67157 -1.5,-1.5 0,-0.82842 0.67158,-1.5 1.5,-1.5 0.82843,0 1.5,0.67158 1.5,1.5 z" />
    <path
       sodipodi:type="arc"
       id="path3873"
       style="fill:#000000;stroke:none"
       sodipodi:cx="173.74625"
       sodipodi:cy="388.69196"
       sodipodi:rx="1.5"
       sodipodi:ry="1.5"
       d="m 175.24625,388.69196 c 0,0.82842 -0.67158,1.5 -1.5,1.5 -0.82843,0 -1.5,-0.67158 -1.5,-1.5 0,-0.82843 0.67157,-1.5 1.5,-1.5 0.82842,0 1.5,0.67157 1.5,1.5 z" />
    <path
       sodipodi:type="arc"
       id="path3875"
       style="fill:#000000;stroke:none"
       sodipodi:cx="174.75639"
       sodipodi:cy="397.78333"
       sodipodi:rx="1.5"
       sodipodi:ry="1.5"
       d="m 176.25639,397.78333 c 0,0.82842 -0.67157,1.5 -1.5,1.5 -0.82842,0 -1.5,-0.67158 -1.5,-1.5 0,-0.82843 0.67158,-1.5 1.5,-1.5 0.82843,0 1.5,0.67157 1.5,1.5 z" />
    <path
       sodipodi:type="arc"
       id="path3877"
       style="fill:#000000;stroke:none"
       sodipodi:cx="173.74625"
       sodipodi:cy="406.87469"
       sodipodi:rx="1.5"
       sodipodi:ry="1.5"
       d="m 175.24625,406.87469 c 0,0.82843 -0.67158,1.5 -1.5,1.5 -0.82843,0 -1.5,-0.67157 -1.5,-1.5 0,-0.82842 0.67157,-1.5 1.5,-1.5 0.82842,0 1.5,0.67158 1.5,1.5 z" />
    <path
       sodipodi:type="arc"
       id="path3879"
       style="fill:#000000;stroke:none"
       sodipodi:cx="173.74625"
       sodipodi:cy="417.98639"
       sodipodi:rx="1.5"
       sodipodi:ry="1.5"
       d="m 175.24625,417.98639 c 0,0.82843 -0.67158,1.5 -1.5,1.5 -0.82843,0 -1.5,-0.67157 -1.5,-1.5 0,-0.82843 0.67157,-1.5 1.5,-1.5 0.82842,0 1.5,0.67157 1.5,1.5 z" />
    <path
       sodipodi:type="arc"
       id="path3881"
       style="fill:#000000;stroke:none"
       sodipodi:cx="173.74625"
       sodipodi:cy="425.05746"
       sodipodi:rx="1.5"
       sodipodi:ry="1.5"
       d="m 175.24625,425.05746 c 0,0.82843 -0.67158,1.5 -1.5,1.5 -0.82843,0 -1.5,-0.67157 -1.5,-1.5 0,-0.82842 0.67157,-1.5 1.5,-1.5 0.82842,0 1.5,0.67158 1.5,1.5 z" />
    <path
       sodipodi:type="arc"
       id="path3883"
       style="fill:#000000;stroke:none"
       sodipodi:cx="173.74625"
       sodipodi:cy="435.15897"
       sodipodi:rx="1.5"
       sodipodi:ry="1.5"
       d="m 175.24625,435.15897 c 0,0.82842 -0.67158,1.5 -1.5,1.5 -0.82843,0 -1.5,-0.67158 -1.5,-1.5 0,-0.82843 0.67157,-1.5 1.5,-1.5 0.82842,0 1.5,0.67157 1.5,1.5 z" />
    <path
       sodipodi:type="arc"
       id="path3885"
       style="fill:#000000;stroke:none"
       sodipodi:cx="173.74625"
       sodipodi:cy="445.2605"
       sodipodi:rx="1.5"
       sodipodi:ry="1.5"
       d="m 175.24625,445.2605 c 0,0.82843 -0.67158,1.5 -1.5,1.5 -0.82843,0 -1.5,-0.67157 -1.5,-1.5 0,-0.82843 0.67157,-1.5 1.5,-1.5 0.82842,0 1.5,0.67157 1.5,1.5 z" />
    <path
       sodipodi:type="arc"
       id="path3887"
       style="fill:#000000;stroke:none"
       sodipodi:cx="173.74625"
       sodipodi:cy="453.34171"
       sodipodi:rx="1.5"
       sodipodi:ry="1.5"
       d="m 175.24625,453.34171 c 0,0.82842 -0.67158,1.5 -1.5,1.5 -0.82843,0 -1.5,-0.67158 -1.5,-1.5 0,-0.82843 0.67157,-1.5 1.5,-1.5 0.82842,0 1.5,0.67157 1.5,1.5 z" />
    <path
       sodipodi:type="arc"
       id="path3889"
       style="fill:#000000;stroke:none"
       sodipodi:cx="172.73608"
       sodipodi:cy="459.40265"
       sodipodi:rx="1.5"
       sodipodi:ry="1.5"
       d="m 174.23608,459.40265 c 0,0.82843 -0.67157,1.5 -1.5,1.5 -0.82842,0 -1.5,-0.67157 -1.5,-1.5 0,-0.82843 0.67158,-1.5 1.5,-1.5 0.82843,0 1.5,0.67157 1.5,1.5 z" />
    <path
       sodipodi:type="arc"
       id="path3891"
       style="fill:#000000;stroke:none"
       sodipodi:cx="173.74625"
       sodipodi:cy="468.49402"
       sodipodi:rx="1.5"
       sodipodi:ry="1.5"
       d="m 175.24625,468.49402 c 0,0.82843 -0.67158,1.5 -1.5,1.5 -0.82843,0 -1.5,-0.67157 -1.5,-1.5 0,-0.82843 0.67157,-1.5 1.5,-1.5 0.82842,0 1.5,0.67157 1.5,1.5 z" />
    <path
       sodipodi:type="arc"
       id="path3893"
       style="fill:#000000;stroke:none"
       sodipodi:cx="172.73608"
       sodipodi:cy="476.57523"
       sodipodi:rx="1.5"
       sodipodi:ry="1.5"
       d="m 174.23608,476.57523 c 0,0.82842 -0.67157,1.5 -1.5,1.5 -0.82842,0 -1.5,-0.67158 -1.5,-1.5 0,-0.82843 0.67158,-1.5 1.5,-1.5 0.82843,0 1.5,0.67157 1.5,1.5 z" />
    <path
       style="opacity:0.92000002;fill:#008080;fill-opacity:1;stroke:#b3b3b3;stroke-width:0.1;stroke-linecap:round;stroke-linejoin:round;stroke-miterlimit:4;stroke-opacity:1;stroke-dasharray:none"
       id="path3903"
       d="m 164.32475,293.45706 c 1.01091,4.98444 2.62834,9.77819 4.46527,14.50957 0,0 -0.83764,0.46669 -0.83764,0.46669 l 0,0 c -1.8414,-4.73093 -3.46213,-9.52393 -4.50438,-14.50214 0,0 0.87675,-0.47412 0.87675,-0.47412 z"
       inkscape:connector-curvature="0" />
    <path
       style="opacity:0.92000002;fill:#008080;fill-opacity:1;stroke:#b3b3b3;stroke-width:0.1;stroke-linecap:round;stroke-linejoin:round;stroke-miterlimit:4;stroke-opacity:1;stroke-dasharray:none"
       id="path3905"
       d="m 152.97654,301.6702 c -0.31675,7.09431 1.93013,13.87954 3.97049,20.57222 3.13673,9.78303 6.79179,19.39132 10.15095,29.10079 1.97815,6.09832 1.03443,3.13544 2.83666,8.88691 0,0 -0.83408,0.4573 -0.83408,0.4573 l 0,0 c -1.79194,-5.75457 -0.85113,-2.79125 -2.82888,-8.8879 -3.35988,-9.7103 -6.99978,-19.32457 -10.15541,-29.1023 -2.04921,-6.69382 -4.30215,-13.47827 -4.02674,-20.57507 0,0 0.88701,-0.45195 0.88701,-0.45195 z"
       inkscape:connector-curvature="0" />
    <path
       style="opacity:0.92000002;fill:#008080;fill-opacity:1;stroke:#b3b3b3;stroke-width:0.1;stroke-linecap:round;stroke-linejoin:round;stroke-miterlimit:4;stroke-opacity:1;stroke-dasharray:none"
       id="path3907"
       d="m 141.98312,324.89883 c 3.95122,9.20174 9.71835,17.48242 14.84675,26.04916 5.21347,9.29579 10.01291,19.14043 13.90453,29.0715 2.11411,5.395 2.96905,8.35666 4.70678,13.79592 0,0 -0.80327,0.44101 -0.80327,0.44101 l 0,0 c -1.72869,-5.43585 -2.58113,-8.40591 -4.68941,-13.79621 -3.87529,-9.90807 -8.70163,-19.7857 -13.90153,-29.05852 -5.14347,-8.57579 -10.93536,-16.84952 -14.94572,-26.04116 0,0 0.88187,-0.4617 0.88187,-0.4617 z"
       inkscape:connector-curvature="0" />
    <path
       style="opacity:0.92000002;fill:#008080;fill-opacity:1;stroke:#b3b3b3;stroke-width:0.1;stroke-linecap:round;stroke-linejoin:round;stroke-miterlimit:4;stroke-opacity:1;stroke-dasharray:none"
       id="path3909"
       d="m 130.09746,338.90907 c 1.38031,4.30826 2.37373,8.74353 3.17076,13.19448 0.26684,1.49016 0.41849,3.00106 0.72976,4.48258 0.32555,1.54945 0.78585,3.06749 1.17878,4.60124 3.7485,9.51611 8.8251,18.42475 13.51062,27.49187 1.58147,3.06034 5.69783,11.34411 7.28765,14.53314 4.26452,9.65105 9.55247,18.78785 14.21506,28.24195 0,0 -0.81611,0.46402 -0.81611,0.46402 l 0,0 c -4.65087,-9.46041 -9.92825,-18.60379 -14.18466,-28.25876 -1.56299,-3.142 -5.72059,-11.52772 -7.27587,-14.53731 -4.68855,-9.07271 -9.78617,-17.97552 -13.56864,-27.48433 -0.39511,-1.5358 -0.85837,-3.05566 -1.18534,-4.60739 -0.31191,-1.48026 -0.46176,-2.99039 -0.72933,-4.47931 -0.79818,-4.44133 -1.79795,-8.86769 -3.20355,-13.15835 0,0 0.87087,-0.48383 0.87087,-0.48383 z"
       inkscape:connector-curvature="0" />
    <path
       style="opacity:0.92000002;fill:#008080;fill-opacity:1;stroke:#b3b3b3;stroke-width:0.1;stroke-linecap:round;stroke-linejoin:round;stroke-miterlimit:4;stroke-opacity:1;stroke-dasharray:none"
       id="path3913"
       d="m 98.898834,381.08335 c 8.848386,9.28351 16.110716,19.85578 23.510136,30.28424 5.64671,7.70729 12.06125,14.89505 17.10422,23.03555 2.19012,3.53533 3.22099,5.78279 5.06077,9.44863 3.0242,7.45212 6.90801,14.49857 10.9729,21.42194 0,0 -0.81698,0.47248 -0.81698,0.47248 l 0,0 c -4.06543,-6.92537 -7.95974,-13.96959 -10.97383,-21.42862 -1.82063,-3.63969 -2.87422,-5.93793 -5.04077,-9.44686 -5.02995,-8.1465 -11.43804,-15.33937 -17.08429,-23.04421 -7.40174,-10.43334 -14.66208,-21.02131 -23.593577,-30.23839 0,0 0.861421,-0.50476 0.861421,-0.50476 z"
       inkscape:connector-curvature="0" />
    <path
       style="opacity:0.92000002;fill:#008080;fill-opacity:1;stroke:#b3b3b3;stroke-width:0.1;stroke-linecap:round;stroke-linejoin:round;stroke-miterlimit:4;stroke-opacity:1;stroke-dasharray:none"
       id="path3915"
       d="m 92.836278,402.17165 c 5.621543,6.955 11.471212,13.71028 17.469422,20.34255 4.3171,4.94424 8.69246,9.90537 12.52295,15.24753 3.8121,5.31652 7.20121,11.00562 10.63872,16.56655 5.09392,8.74646 10.08515,17.55235 15.1704,26.30362 0,0 -0.81119,0.46861 -0.81119,0.46861 l 0,0 c -5.07905,-8.75391 -10.05795,-17.56585 -15.15575,-26.30916 -3.43525,-5.55856 -6.82509,-11.24313 -10.63446,-16.55764 -3.82838,-5.34104 -8.20346,-10.29875 -12.51783,-15.24248 -6.01089,-6.62958 -11.868864,-13.38456 -17.540402,-20.30668 0,0 0.85814,-0.5129 0.85814,-0.5129 z"
       inkscape:connector-curvature="0" />
    <path
       style="opacity:0.92000002;fill:#008080;fill-opacity:1;stroke:#b3b3b3;stroke-width:0.1;stroke-linecap:round;stroke-linejoin:round;stroke-miterlimit:4;stroke-opacity:1;stroke-dasharray:none"
       id="path3917"
       d="m 94.506351,426.80243 c 2.045962,7.0377 5.735979,13.48991 9.387049,19.79866 3.18148,5.33369 5.94067,10.90839 9.27255,16.15555 2.30993,3.63777 3.13097,4.58521 5.73543,8.04888 1.05374,1.33137 2.10749,2.66274 3.16123,3.99411 0,0 -0.80843,0.48262 -0.80843,0.48262 l 0,0 c -1.05445,-1.33186 -2.1089,-2.66371 -3.16334,-3.99557 -2.61594,-3.47703 -3.42269,-4.40449 -5.74312,-8.05601 -3.33402,-5.24656 -6.09538,-10.8202 -9.27366,-16.15638 -3.661856,-6.31792 -7.348411,-12.77574 -9.450374,-19.8082 0,0 0.882665,-0.46366 0.882665,-0.46366 z"
       inkscape:connector-curvature="0" />
    <path
       style="opacity:0.92000002;fill:#008080;fill-opacity:1;stroke:#b3b3b3;stroke-width:0.1;stroke-linecap:round;stroke-linejoin:round;stroke-miterlimit:4;stroke-opacity:1;stroke-dasharray:none"
       id="path3911"
       d="m 113.58131,357.10739 c -0.10976,2.32349 0.43144,4.63384 0.84734,6.90582 0.19996,1.09236 0.31843,2.20526 0.6274,3.27193 0.63494,2.19197 2.41756,6.17024 3.28191,8.19174 2.78628,6.35137 5.20786,12.87995 8.66753,18.90992 2.21456,3.85981 4.6033,7.39742 7.0357,11.1294 8.60806,12.06396 16.85377,24.35586 24.5549,37.01773 3.72264,6.36583 7.18518,12.8596 10.31411,19.53507 0,0 -0.82126,0.46481 -0.82126,0.46481 l 0,0 c -3.12082,-6.67591 -6.57576,-13.17012 -10.28765,-19.53864 -7.6866,-12.67033 -15.93421,-24.95916 -24.5505,-37.01684 -2.45145,-3.74768 -4.82724,-7.25094 -7.05669,-11.12654 -3.46785,-6.02842 -5.88825,-12.56013 -8.68236,-18.91089 -0.8427,-1.96323 -2.68246,-6.06626 -3.30726,-8.20124 -0.31191,-1.0658 -0.4309,-2.17886 -0.6332,-3.27078 -0.42117,-2.27315 -0.97345,-4.58312 -0.87842,-6.9088 0,0 0.88845,-0.45269 0.88845,-0.45269 z"
       inkscape:connector-curvature="0" />
    <text
       xml:space="preserve"
       style="font-size:28px;font-style:normal;font-variant:normal;font-weight:normal;font-stretch:normal;line-height:125%;letter-spacing:0px;word-spacing:0px;fill:#800000;fill-opacity:1;stroke:none;font-family:Ubuntu Sans;-inkscape-font-specification:Ubuntu Sans"
       x="100.0051"
       y="213.93558"
       id="text3945"
       sodipodi:linespacing="125%"><tspan
         sodipodi:role="line"
         id="tspan3947"
         x="100.0051"
         y="213.93558"
         style="font-size:28px;font-family:Gochi Hand;-inkscape-font-specification:Gochi Hand">I can build a blog!</tspan></text>
    <path
       style="opacity:0.92000002;fill:#800000;fill-opacity:1;stroke:#b3b3b3;stroke-width:0.1;stroke-linecap:round;stroke-linejoin:round;stroke-miterlimit:4;stroke-opacity:1;stroke-dasharray:none"
       id="path3951"
       d="m 163.07951,219.60544 c -0.0174,8.36069 -1.83714,16.60907 -3.29962,24.80722 -1.40588,10.44806 -5.16574,20.36972 -7.7135,30.55553 -2.40195,9.60288 -2.63824,12.01023 -4.38538,21.93196 -0.52858,3.86331 -1.07385,7.72436 -1.58574,11.58991 -1.07118,8.08909 -1.83801,14.0463 -2.59997,22.16281 -1.00766,10.73379 -1.50579,21.5008 -2.40452,32.24364 -0.4717,2.07221 -0.84337,16.73341 -6.13642,15.50685 -1.67909,-0.38909 -4.47358,-3.6994 -5.37607,-4.63675 -2.9705,-3.33571 -4.79018,-7.39617 -6.8538,-11.295 -0.44888,-0.8481 -0.95675,-1.66421 -1.40195,-2.51424 -0.19947,-0.38085 -0.90218,-0.95934 -0.5306,-1.17559 0.48056,-0.27967 1.04443,0.38177 1.56664,0.57266 1.10914,1.42786 1.72456,3.18514 2.81752,4.62014 2.58213,3.39025 6.92097,7.0433 10.84808,8.69089 1.60254,0.67233 3.35607,0.90411 5.0341,1.35617 7.39455,0.2937 12.38292,-2.06519 18.92506,-4.9787 0,0 -0.7193,0.57002 -0.7193,0.57002 l 0,0 c -6.56829,2.91088 -11.56196,5.25796 -18.98042,4.94077 -1.68338,-0.45873 -3.44256,-0.69803 -5.05013,-1.3762 -3.93778,-1.66117 -8.29421,-5.3223 -10.89529,-8.71729 -1.09628,-1.43089 -1.71637,-3.18531 -2.83649,-4.60413 0.0518,-0.52047 -0.29754,-1.29979 0.15537,-1.56141 0.37036,-0.21393 0.31254,0.79781 0.50754,1.17848 0.43803,0.85512 0.9431,1.67452 1.38965,2.52522 2.04625,3.89828 3.86974,7.94543 6.84004,11.27005 3.29293,3.39199 1.83212,2.31008 5.35681,4.5481 0.22199,0.14095 0.49454,0.57217 0.68513,0.39101 3.15022,-2.99425 3.06176,-11.32923 3.86957,-14.91939 0.91705,-10.74523 1.41159,-21.51506 2.41841,-32.25269 0.77117,-8.22446 1.51994,-13.971 2.60619,-22.16871 0.51229,-3.86613 1.05534,-7.72812 1.58301,-11.59218 1.72616,-9.85889 1.98254,-12.38106 4.35553,-21.92691 2.53013,-10.17797 6.27932,-20.09084 7.67559,-30.52779 1.45608,-8.18009 3.2689,-16.41809 3.24506,-24.76102 0,0 0.8899,-0.45343 0.8899,-0.45343 z"
       inkscape:connector-curvature="0" />
    <path
       style="opacity:0.92000002;fill:#0000ff;fill-opacity:1;stroke:#b3b3b3;stroke-width:0.1;stroke-linecap:round;stroke-linejoin:round;stroke-miterlimit:4;stroke-opacity:1;stroke-dasharray:none"
       id="path3975"
       d="m 406.73508,265.82599 c -0.54671,22.48753 -0.52111,44.98579 -0.5443,67.47873 -0.0415,32.2528 -0.0755,64.50545 0.0589,96.75804 0.51218,7.02335 -0.28277,14.1 0.18144,21.12741 0.24501,3.70899 0.65688,7.61082 2.95751,10.72469 2.17481,2.94358 3.88604,2.8231 7.18259,3.77151 7.78594,1.19086 15.42065,-0.69223 22.99401,-2.2632 7.81243,-1.62057 5.32049,-1.11853 13.18326,-2.53078 13.22258,-2.03376 26.58375,-2.96979 39.91863,-3.92411 2.29767,-0.17091 11.35362,-0.78077 13.58856,-1.20552 4.11556,-0.78216 8.72161,-2.65875 12.67207,-4.00232 6.843,-2.32732 4.93588,-1.69805 11.9651,-3.38796 12.482,-1.94961 25.15289,-0.72253 37.71572,-0.54107 1.59503,-0.12497 3.19006,-0.24993 4.78509,-0.3749 1.22176,-0.3533 2.40333,-0.9018 3.66529,-1.05989 0.8145,-0.10204 -2.2197,1.70568 -2.29673,0.88845 -0.12417,-1.31733 1.58124,-2.15946 2.06069,-3.3927 1.87801,-4.8306 2.48138,-11.97163 3.15768,-16.67014 8.41629,-46.00729 18.95296,-91.59162 29.28245,-137.19685 2.24204,-9.11562 4.4412,-18.24189 6.72612,-27.34686 5.88522,-23.45151 7.31819,-29.27809 14.13576,-52.05757 5.82442,-19.46107 7.69632,-23.25497 12.4289,-42.01843 1.38452,-5.48926 2.46797,-11.05009 3.70196,-16.57513 4.95831,-27.82883 5.00733,-56.173986 4.7305,-84.342079 -0.0557,-10.559332 -0.92355,-21.245973 1.03193,-31.703848 0.86712,-4.637296 1.66703,-6.532636 3.14212,-10.9198 0.68816,-1.623892 1.37632,-3.247784 2.06448,-4.871676 0,0 5.11937,-2.352647 5.11937,-2.352647 l 0,0 c -0.6982,1.613072 -1.39639,3.226144 -2.09458,4.839216 -1.50594,4.322116 -2.35186,6.293278 -3.26758,10.86386 -2.09756,10.46941 -1.32291,21.194574 -1.37987,31.790102 0.004,28.278331 -0.17951,56.733402 -5.12808,84.665612 -1.3012,5.56592 -2.4447,11.17109 -3.90362,16.69777 -4.55088,17.23957 -7.50383,24.59995 -12.87573,42.23358 -7.06827,23.20207 -8.2836,28.19013 -14.29187,52.11408 -2.28516,9.09911 -4.47552,18.22177 -6.71328,27.33266 -10.19353,45.32872 -20.6527,90.65247 -28.04081,136.54419 -0.39421,3.48317 -0.64395,6.98575 -1.18262,10.44952 -0.26175,1.68311 -1.3399,8.06305 -3.31574,9.78654 -5.19974,4.53567 -9.62676,5.84616 -16.07047,5.9547 -12.52304,-0.27204 -25.17441,-1.40909 -37.60441,0.63696 -7.2332,1.78784 -4.86117,1.04368 -11.91513,3.41713 -4.20868,1.4161 -8.32835,3.07568 -12.72445,3.87996 -2.2619,0.41382 -4.57244,0.49517 -6.86294,0.69782 -2.24842,0.19892 -4.50174,0.33787 -6.75261,0.5068 -13.32234,0.95468 -26.67248,1.89759 -39.87735,3.96711 -8.37562,1.51986 -4.85229,0.82707 -13.18757,2.55335 -7.67335,1.5892 -15.42085,3.44204 -23.29688,2.13331 -3.46345,-1.11372 -5.19031,-1.01968 -7.40674,-4.19843 -2.29433,-3.29046 -2.59862,-7.23802 -2.7609,-11.09777 -0.29842,-7.09809 0.67083,-14.21539 0.18144,-21.31231 0.13386,-32.27259 0.10077,-64.54524 0.0589,-96.81804 -0.023,-22.308 0.007,-44.62162 -0.54429,-66.92407 0,0 5.34812,-2.725 5.34812,-2.725 z"
       inkscape:connector-curvature="0" />
    <text
       xml:space="preserve"
       style="font-size:40px;font-style:normal;font-variant:normal;font-weight:normal;font-stretch:normal;line-height:125%;letter-spacing:0px;word-spacing:0px;fill:#800000;fill-opacity:1;stroke:none;font-family:Ubuntu Sans;-inkscape-font-specification:Ubuntu Sans"
       x="189.90868"
       y="394.7529"
       id="text3977"
       sodipodi:linespacing="125%"><tspan
         sodipodi:role="line"
         id="tspan3979"
         x="189.90868"
         y="394.7529"
         style="font-size:28px;fill:#800000;font-family:Gochi Hand;-inkscape-font-specification:Gochi Hand">I need to do X but</tspan><tspan
         sodipodi:role="line"
         x="189.90868"
         y="429.7529"
         style="font-size:28px;fill:#800000;font-family:Gochi Hand;-inkscape-font-specification:Gochi Hand"
         id="tspan3985">Rails gives me Y</tspan></text>
    <path
       style="opacity:0.92000002;fill:#ff0000;fill-opacity:1;stroke:#b3b3b3;stroke-width:0.1;stroke-linecap:round;stroke-linejoin:round;stroke-miterlimit:4;stroke-opacity:1;stroke-dasharray:none"
       id="path3983"
       d="m 303.28283,364.93336 c 2.61079,-6.33622 8.03955,-11.7125 12.69168,-16.59383 4.97656,-5.22174 7.83182,-7.83299 13.04265,-12.81122 11.40791,-11.16789 23.76422,-21.28513 36.08991,-31.40635 5.26929,-4.14696 11.08951,-7.48868 16.67356,-11.16957 3.75474,-2.47505 5.68666,-3.57646 8.52012,-6.91863 0.8903,-1.05013 1.55088,-2.27517 2.32632,-3.41275 0.86712,-1.68944 2.24055,-5.54907 -0.94518,-6.18656 -2.78807,-0.55791 -10.67555,2.21254 -13.29255,2.96909 -4.12004,1.45651 -6.9566,2.30059 -10.80728,4.21948 -0.49196,0.24516 -2.17762,1.37066 -1.66628,2.33851 0.49564,0.93814 3.57359,0.40216 4.88112,0.31721 6.356,-1.06502 14.65822,-5.41838 21.07498,-2.89493 0.91647,0.36041 1.68314,1.0229 2.5247,1.53435 4.99448,5.29122 7.95856,12.10067 10.55631,18.80369 0.47917,1.29045 0.95834,2.5809 1.43751,3.87134 0,0 -1.66911,0.92671 -1.66911,0.92671 l 0,0 c -0.47987,-1.28903 -0.95974,-2.57806 -1.43961,-3.86708 -2.58689,-6.66146 -5.52723,-13.43847 -10.51542,-18.68031 -0.8278,-0.49509 -1.58321,-1.13884 -2.48341,-1.48527 -6.4103,-2.4669 -14.6853,1.9194 -21.03864,2.93326 -0.2747,0.0137 -4.4127,0.78113 -5.11585,-0.61125 -0.24503,-0.48522 0.0249,-1.21253 0.43235,-1.57237 4.11445,-3.63397 10.37213,-5.00974 15.30527,-6.97112 2.84736,-0.8257 10.44065,-3.60736 13.47667,-2.88601 0.65802,0.15634 1.27071,0.63787 1.62641,1.21311 1.22126,1.97504 0.10063,3.35719 -0.59288,5.26451 -0.7772,1.15163 -1.43759,2.39137 -2.33159,3.45488 -2.84805,3.38804 -4.75712,4.47415 -8.5487,6.97379 -5.5852,3.68209 -11.41155,7.0166 -16.69132,11.15223 -12.34313,10.12532 -24.72117,20.24135 -36.14645,31.41476 -5.21311,4.97516 -8.05443,7.5667 -13.02429,12.79021 -4.65106,4.88845 -9.88495,10.10103 -12.56316,16.407 0,0 -1.78784,0.88312 -1.78784,0.88312 z"
       inkscape:connector-curvature="0" />
    <path
       style="opacity:0.92000002;fill:#0000ff;fill-opacity:1;stroke:#b3b3b3;stroke-width:0.1;stroke-linecap:round;stroke-linejoin:round;stroke-miterlimit:4;stroke-opacity:1;stroke-dasharray:none"
       id="path3987"
       d="m 83.345343,414.17593 c 3.322132,-10.88354 7.445195,-21.49115 12.523657,-31.67936 1.400978,-2.81058 2.9147,-5.56354 4.37205,-8.34532 7.75517,-13.96017 17.22534,-26.81565 26.47368,-39.79307 4.05764,-5.74512 8.15043,-11.45563 12.47174,-17.00594 1.4077,-1.80805 2.73487,-3.68473 4.25665,-5.39788 1.96838,-2.2159 5.4774,-5.28469 7.76515,-7.34576 5.1228,-4.2936 6.80544,-10.86767 10.21885,-16.34385 0.82773,-1.32795 1.79201,-2.56574 2.68802,-3.84862 1.14841,-1.2848 2.19224,-2.67139 3.44525,-3.85442 5.22943,-4.93742 12.9084,-8.91841 19.25615,-11.82401 2.59108,-1.18603 10.5636,-3.64972 13.19344,-4.49262 16.28754,-4.75606 33.06,-7.56173 49.74417,-10.51936 16.24365,-2.66664 32.60089,-4.48428 49.00764,-5.75526 14.22802,-1.43308 28.37933,-0.0636 42.4014,2.35186 6.50779,1.32591 13.08896,2.34917 19.54383,3.93163 6.43307,1.5771 12.80145,3.47881 19.22063,5.12112 8.09413,2.45518 16.77383,2.24316 24.86759,4.64235 1.62098,0.48049 3.14702,1.23696 4.72052,1.85545 0,0 -3.91343,2.62507 -3.91343,2.62507 l 0,0 c -1.54461,-0.60783 -3.04264,-1.35081 -4.63381,-1.82349 -8.08415,-2.40152 -16.75424,-2.21575 -24.83638,-4.68481 -6.41213,-1.64865 -12.77898,-3.54221 -19.21045,-5.1067 -6.45026,-1.56905 -13.01902,-2.61261 -19.52254,-3.92253 -13.99114,-2.39653 -28.10581,-3.72834 -42.29827,-2.28754 -16.37074,1.21662 -32.68432,3.09578 -48.89122,5.7245 -16.71294,2.97352 -33.5152,5.81151 -49.81263,10.64884 -14.12159,4.57704 0.42413,-0.23961 -13.18567,4.56785 -0.6206,0.21922 -1.31159,0.25295 -1.89311,0.56125 -4.91509,2.60577 -9.37773,5.9966 -12.85901,10.35284 -0.89208,1.26146 -1.85393,2.47638 -2.67626,3.78438 -3.45863,5.50131 -5.05458,12.16911 -10.19458,16.5109 -2.13011,1.8823 -6.1444,5.34413 -7.92733,7.3254 -1.53083,1.70114 -2.84318,3.58692 -4.25201,5.39039 -4.33643,5.55119 -8.46606,11.24665 -12.51952,17.00767 -9.25549,13.00347 -18.80276,25.8372 -26.62048,39.79118 -1.45332,2.77316 -2.96526,5.51638 -4.359968,8.31948 -5.016014,10.08122 -9.125209,20.58928 -12.098827,31.45342 0,0 -4.464922,2.06496 -4.464922,2.06496 z"
       inkscape:connector-curvature="0" />
    <text
       xml:space="preserve"
       style="font-size:40px;font-style:normal;font-variant:normal;font-weight:normal;font-stretch:normal;line-height:125%;letter-spacing:0px;word-spacing:0px;fill:#000000;fill-opacity:1;stroke:none;font-family:Ubuntu Sans;-inkscape-font-specification:Ubuntu Sans"
       x="496.99506"
       y="39.17918"
       id="text3993"
       sodipodi:linespacing="125%"><tspan
         sodipodi:role="line"
         id="tspan3995"
         x="496.99506"
         y="39.17918" /></text>
    <text
       xml:space="preserve"
       style="font-size:40px;font-style:normal;font-variant:normal;font-weight:normal;font-stretch:normal;line-height:125%;letter-spacing:0px;word-spacing:0px;fill:#000000;fill-opacity:1;stroke:none;font-family:Ubuntu Sans;-inkscape-font-specification:Ubuntu Sans"
       x="546.49255"
       y="62.412689"
       id="text3997"
       sodipodi:linespacing="125%"><tspan
         sodipodi:role="line"
         id="tspan3999"
         x="546.49255"
         y="62.412689" /></text>
    <text
       xml:space="preserve"
       style="font-size:16px;font-style:normal;font-variant:normal;font-weight:normal;font-stretch:normal;line-height:125%;letter-spacing:0px;word-spacing:0px;fill:#000000;fill-opacity:1;stroke:none;font-family:Ubuntu Sans;-inkscape-font-specification:Ubuntu Sans"
       x="411.13208"
       y="43.219788"
       id="text4001"
       sodipodi:linespacing="125%"><tspan
         sodipodi:role="line"
         id="tspan4003"
         x="411.13208"
         y="43.219788" /></text>
  </g>
</svg>
