<?xml version="1.0" encoding="UTF-8" standalone="no"?>
<!-- Created with Inkscape (http://www.inkscape.org/) -->

<svg
   xmlns:dc="http://purl.org/dc/elements/1.1/"
   xmlns:cc="http://creativecommons.org/ns#"
   xmlns:rdf="http://www.w3.org/1999/02/22-rdf-syntax-ns#"
   xmlns:svg="http://www.w3.org/2000/svg"
   xmlns="http://www.w3.org/2000/svg"
   xmlns:sodipodi="http://sodipodi.sourceforge.net/DTD/sodipodi-0.dtd"
   xmlns:inkscape="http://www.inkscape.org/namespaces/inkscape"
   width="590.26733"
   height="470.43954"
   id="svg2"
   version="1.1"
   inkscape:version="0.48.4 r9939"
   sodipodi:docname="what-we-want.svg">
  <defs
     id="defs4" />
  <sodipodi:namedview
     id="base"
     pagecolor="#ffffff"
     bordercolor="#666666"
     borderopacity="1.0"
     inkscape:pageopacity="0.0"
     inkscape:pageshadow="2"
     inkscape:zoom="0.7"
     inkscape:cx="546.25894"
     inkscape:cy="219.63423"
     inkscape:document-units="px"
     inkscape:current-layer="layer1"
     showgrid="false"
     showguides="true"
     inkscape:guide-bbox="true"
     inkscape:window-width="1366"
     inkscape:window-height="744"
     inkscape:window-x="0"
     inkscape:window-y="24"
     inkscape:window-maximized="0"
     fit-margin-top="0"
     fit-margin-left="0"
     fit-margin-right="0"
     fit-margin-bottom="0" />
  <metadata
     id="metadata7">
    <rdf:RDF>
      <cc:Work
         rdf:about="">
        <dc:format>image/svg+xml</dc:format>
        <dc:type
           rdf:resource="http://purl.org/dc/dcmitype/StillImage" />
        <dc:title></dc:title>
      </cc:Work>
    </rdf:RDF>
  </metadata>
  <g
     inkscape:label="Layer 1"
     inkscape:groupmode="layer"
     id="layer1"
     transform="translate(-72.139331,-17.77484)">
    <path
       style="opacity:0.92000002;fill:#000000;fill-opacity:1;stroke:#000000;stroke-width:0.1;stroke-linecap:round;stroke-linejoin:round;stroke-miterlimit:4;stroke-opacity:1;stroke-dasharray:none"
       id="path3771"
       d="m 79.321051,48.312815 c -0.03608,1.052005 -0.166337,2.104996 -0.108243,3.156016 0.345002,6.241612 1.299972,12.434529 1.931608,18.653676 0.609624,6.002412 1.233076,12.003805 1.765775,18.013532 1.832133,20.669481 2.126117,26.942821 3.542038,48.202011 1.985739,35.83338 3.544459,71.71 3.98286,107.60018 0.197607,16.17741 -0.0025,34.01235 -0.117486,50.23076 -0.325513,30.64192 -0.822119,61.28159 -1.091277,91.92409 -0.291631,23.21956 -1.294821,46.42992 -2.333472,69.62717 -0.09834,1.65896 -0.971249,15.06359 -0.845952,17.50526 0.09949,1.93872 -0.118627,4.13676 0.973111,5.74195 3.168885,4.65926 13.954587,4.95902 17.348827,5.18086 6.55513,0.42843 13.13678,0.19531 19.70517,0.29296 9.3246,-0.16122 18.65107,-0.23647 27.97379,-0.48365 6.07227,-0.16101 73.53263,-2.52601 76.49338,-2.62337 45.06762,-1.48199 90.13936,-2.61952 135.21904,-3.65426 37.52596,-1.02637 75.0623,-1.74542 112.57957,-3.07998 23.02563,-0.81907 46.04041,-1.97808 69.05783,-2.99616 13.75019,-0.53055 27.5381,-1.20592 41.28668,-0.19817 9.84136,0.72135 19.65304,2.32269 29.43226,3.60229 2.86556,0.33772 5.73112,0.67543 8.59668,1.01314 0,0 -5.83541,4.13334 -5.83541,4.13334 l 0,0 c -2.84871,-0.35304 -5.69743,-0.70609 -8.54614,-1.05913 -9.70483,-1.30812 -19.43086,-2.9212 -29.19773,-3.69698 -13.50331,-1.07255 -27.06081,-0.62559 -40.58019,-0.24608 -22.6481,0.77657 -45.29633,1.62996 -67.95149,2.17784 -37.15208,0.89848 -74.31574,1.28191 -111.46612,2.26533 -45.18673,0.97876 -90.35569,2.10943 -135.51979,3.88121 -105.76133,4.149 17.55745,-0.46246 -77.62756,3.44622 -9.56634,0.39283 -19.13729,0.66398 -28.70594,0.99598 -6.80293,0.0355 -13.61345,0.42981 -20.408799,0.1066 -4.453911,-0.21185 -14.888942,-0.16326 -18.432577,-5.57716 -1.100912,-1.68195 -0.789556,-3.96126 -0.848895,-5.9706 -0.05323,-1.80255 1.061646,-16.74655 1.125906,-17.65033 1.28685,-23.173 2.113258,-46.37623 2.304123,-69.5852 0.665501,-30.86826 1.788965,-61.72414 2.414939,-92.59335 0.278606,-18.99298 0.570455,-31.17544 0.373004,-50.3417 C 85.441122,210.44516 83.895412,174.58767 81.714666,138.79497 80.120031,118.16224 79.77611,111.03415 77.467723,90.987993 76.7868,85.074821 75.955567,79.179651 75.130214,73.284903 74.274436,67.172859 73.040059,61.11429 72.310073,54.98595 c -0.120158,-1.008747 -0.07216,-2.030474 -0.108242,-3.045711 0,0 7.11922,-3.627424 7.11922,-3.627424 z"
       inkscape:connector-curvature="0" />
    <text
       xml:space="preserve"
       style="font-size:28px;font-style:normal;font-variant:normal;font-weight:normal;font-stretch:normal;line-height:125%;letter-spacing:0px;word-spacing:0px;fill:#800000;fill-opacity:1;stroke:none;font-family:Ubuntu Sans;-inkscape-font-specification:Ubuntu Sans"
       x="102.86224"
       y="393.93558"
       id="text3945"
       sodipodi:linespacing="125%"><tspan
         sodipodi:role="line"
         id="tspan3947"
         x="102.86224"
         y="393.93558"
         style="font-size:28px;font-family:Gochi Hand;-inkscape-font-specification:Gochi Hand">I can build a blog!</tspan></text>
    <path
       style="opacity:0.92000002;fill:#800000;fill-opacity:1;stroke:#b3b3b3;stroke-width:0.05501367;stroke-linecap:round;stroke-linejoin:round;stroke-miterlimit:4;stroke-opacity:1;stroke-dasharray:none"
       id="path3951"
       d="m 163.72789,363.94125 c -1.11457,-5.78883 -1.50851,-11.92721 -2.03557,-17.94614 -0.85099,-7.56221 -0.70987,-15.31823 -1.07867,-22.96969 -0.3477,-7.21357 -0.57809,-8.9352 -1.22489,-16.21415 -0.31124,-2.7983 -0.61565,-5.59899 -0.93373,-8.39489 -0.66561,-5.85072 -1.16444,-10.15425 -1.95478,-15.95063 -1.04521,-7.66551 -2.29433,-15.23321 -3.38339,-22.87916 -0.0933,-1.54557 -1.91422,-11.77766 0.32236,-12.18376 0.7095,-0.12883 2.24746,1.4991 2.72647,1.9337 1.61027,1.60378 2.86723,3.98182 4.198,6.1902 0.28948,0.48038 0.59776,0.92465 0.88605,1.40725 0.12917,0.21622 0.48185,0.44989 0.36539,0.6876 -0.15062,0.30741 -0.46007,-0.0165 -0.6901,-0.0249 -0.62571,-0.725 -1.10232,-1.79496 -1.72265,-2.52874 -1.46555,-1.73357 -3.65403,-3.23254 -5.41236,-3.44155 -0.71752,-0.0853 -1.43507,0.17003 -2.1526,0.25503 -2.93413,1.54972 -4.57054,4.36435 -6.74081,7.93104 0,0 0.20513,-0.56491 0.20513,-0.56491 l 0,0 c 2.18086,-3.57107 3.82093,-6.37878 6.76757,-7.91791 0.72052,-0.0817 1.44128,-0.33312 2.16156,-0.24498 1.76433,0.21588 3.96078,1.71627 5.43438,3.44863 0.62108,0.73014 1.09914,1.79702 1.72793,2.51316 0.0495,0.37239 0.29081,0.82878 0.1486,1.11716 -0.11629,0.23581 -0.22935,-0.47791 -0.35675,-0.69507 -0.28617,-0.48781 -0.59379,-0.93502 -0.8827,-1.41775 -1.3239,-2.21212 -2.58057,-4.58004 -4.18927,-6.1762 -1.74403,-1.56628 -1.02705,-1.16401 -2.70704,-1.87693 -0.10581,-0.0449 -0.27034,-0.27865 -0.32065,-0.10813 -0.83161,2.81849 0.32095,8.56443 0.48625,11.23993 1.0822,7.65195 2.33312,15.22075 3.37916,22.88872 0.80122,5.87326 1.27886,10.02674 1.95314,15.95619 0.318,2.79639 0.62341,5.5972 0.93511,8.39581 0.64658,7.23049 0.8845,9.03634 1.23589,16.20358 0.37465,7.64185 0.23653,15.38927 1.08979,22.94151 0.52714,6.00492 0.9224,12.13447 2.05073,17.90124 0,0 -0.28755,0.52468 -0.28755,0.52468 z"
       inkscape:connector-curvature="0" />
    <text
       xml:space="preserve"
       style="font-size:40px;font-style:normal;font-variant:normal;font-weight:normal;font-stretch:normal;line-height:125%;letter-spacing:0px;word-spacing:0px;fill:#800000;fill-opacity:1;stroke:none;font-family:Ubuntu Sans;-inkscape-font-specification:Ubuntu Sans"
       x="327.05154"
       y="266.18146"
       id="text3977"
       sodipodi:linespacing="125%"><tspan
         sodipodi:role="line"
         id="tspan3979"
         x="327.05154"
         y="266.18146"
         style="font-size:28px;fill:#800000;font-family:Gochi Hand;-inkscape-font-specification:Gochi Hand">I need to do X but</tspan><tspan
         sodipodi:role="line"
         x="327.05154"
         y="301.18146"
         style="font-size:28px;fill:#800000;font-family:Gochi Hand;-inkscape-font-specification:Gochi Hand"
         id="tspan3985">[framework] gives me Y</tspan></text>
    <path
       style="opacity:0.92000002;fill:#ff0000;fill-opacity:1;stroke:#b3b3b3;stroke-width:0.1;stroke-linecap:round;stroke-linejoin:round;stroke-miterlimit:4;stroke-opacity:1;stroke-dasharray:none"
       id="path3983"
       d="m 420.74093,232.97342 c -6.81088,-0.75882 -13.47764,-4.49112 -19.45417,-7.61375 -6.39332,-3.3404 -9.69172,-5.36319 -15.91571,-8.99601 -13.88474,-7.87885 -27.02171,-16.95944 -40.15404,-26.0095 -5.44122,-3.91864 -10.26074,-8.58922 -15.34098,-12.93913 -3.41598,-2.92489 -5.00823,-4.47737 -9.00308,-6.2773 -1.25521,-0.56555 -2.61507,-0.86201 -3.92259,-1.29302 -1.86324,-0.36667 -5.95209,-0.62043 -5.68471,2.61744 0.234,2.8337 5.07556,9.64891 6.52561,11.95507 2.538,3.55735 4.13283,6.05035 7.0408,9.22109 0.37152,0.40509 1.91889,1.71424 2.70781,0.95543 0.76472,-0.73552 -0.60069,-3.54563 -1.04354,-4.77881 -2.77942,-5.81445 -9.25686,-12.59098 -8.60424,-19.45514 0.0932,-0.98037 0.51813,-1.90022 0.7772,-2.85032 3.70559,-6.26182 9.43123,-10.99166 15.15578,-15.34003 1.10786,-0.81701 2.21572,-1.63402 3.32358,-2.45103 0,0 1.35174,1.34815 1.35174,1.34815 l 0,0 c -1.10631,0.81729 -2.21261,1.63458 -3.31891,2.45187 -5.68761,4.32645 -11.38862,9.02452 -15.0485,15.26666 -0.24714,0.93235 -0.65716,1.8362 -0.74143,2.79707 -0.60005,6.84233 5.90153,13.5836 8.63104,19.40963 0.0891,0.26023 1.96974,4.0252 0.82579,5.08563 -0.39865,0.36954 -1.17222,0.31103 -1.63062,0.0188 -4.62917,-2.95046 -7.68009,-8.58457 -10.92792,-12.78391 -1.58015,-2.50845 -6.35121,-9.03782 -6.49664,-12.15497 -0.0315,-0.67561 0.26202,-1.39748 0.71661,-1.89824 1.56081,-1.71934 3.19875,-1.02414 5.22343,-0.88452 1.32152,0.42882 2.69545,0.72104 3.96454,1.28645 4.04297,1.80128 5.6142,3.33602 9.06399,6.28953 5.08171,4.35068 9.89599,9.02914 15.32922,12.96099 13.14109,9.06568 26.2829,18.16749 40.17774,26.06151 6.22168,3.63586 9.49728,5.6507 15.89045,8.98417 5.98307,3.11963 12.43867,6.70987 19.2391,7.54184 0,0 1.34265,1.47431 1.34265,1.47431 z"
       inkscape:connector-curvature="0" />
    <text
       xml:space="preserve"
       style="font-size:40px;font-style:normal;font-variant:normal;font-weight:normal;font-stretch:normal;line-height:125%;letter-spacing:0px;word-spacing:0px;fill:#000000;fill-opacity:1;stroke:none;font-family:Ubuntu Sans;-inkscape-font-specification:Ubuntu Sans"
       x="496.99506"
       y="39.17918"
       id="text3993"
       sodipodi:linespacing="125%"><tspan
         sodipodi:role="line"
         id="tspan3995"
         x="496.99506"
         y="39.17918" /></text>
    <text
       xml:space="preserve"
       style="font-size:40px;font-style:normal;font-variant:normal;font-weight:normal;font-stretch:normal;line-height:125%;letter-spacing:0px;word-spacing:0px;fill:#000000;fill-opacity:1;stroke:none;font-family:Ubuntu Sans;-inkscape-font-specification:Ubuntu Sans"
       x="546.49255"
       y="62.412689"
       id="text3997"
       sodipodi:linespacing="125%"><tspan
         sodipodi:role="line"
         id="tspan3999"
         x="546.49255"
         y="62.412689" /></text>
    <text
       xml:space="preserve"
       style="font-size:16px;font-style:normal;font-variant:normal;font-weight:normal;font-stretch:normal;line-height:125%;letter-spacing:0px;word-spacing:0px;fill:#000000;fill-opacity:1;stroke:none;font-family:Ubuntu Sans;-inkscape-font-specification:Ubuntu Sans"
       x="411.13208"
       y="43.219788"
       id="text4001"
       sodipodi:linespacing="125%"><tspan
         sodipodi:role="line"
         id="tspan4003"
         x="411.13208"
         y="43.219788" /></text>
    <path
       style="opacity:0.92000002;fill:#0000ff;fill-opacity:1;stroke:#b3b3b3;stroke-width:0.1;stroke-linecap:round;stroke-linejoin:round;stroke-miterlimit:4;stroke-opacity:1;stroke-dasharray:none"
       id="path3058"
       d="m 12.568005,336.56077 c 0.280872,-9.50284 3.746553,-18.20742 7.690506,-26.70485 0.941972,-1.96379 1.833018,-3.95283 2.825917,-5.89137 2.079111,-4.05926 4.358745,-8.01303 6.47893,-12.05099 0.352991,-0.67228 5.858401,-11.31407 6.298915,-12.07134 1.161626,-1.99691 2.490067,-3.892 3.7351,-5.838 3.699284,-5.51615 7.533259,-10.941 10.98493,-16.61947 1.103853,-1.81598 2.082801,-3.70679 3.209241,-5.50885 1.746891,-2.79465 5.651647,-8.35805 7.520091,-11.05331 3.44662,-5.25234 7.022612,-10.41439 11.676136,-14.69255 7.424926,-6.82602 16.360779,-11.46195 25.026001,-16.46063 14.128358,-7.87419 28.203358,-15.74738 41.666318,-24.72292 10.79515,-6.74211 20.83908,-14.57402 31.34108,-21.74414 0.88715,-0.60569 15.62504,-10.42639 16.48254,-10.998 2.78009,-1.74259 5.51487,-3.55967 8.34028,-5.22778 6.52251,-3.85087 16.73398,-9.50279 23.85027,-13.48021 7.28341,-4.07082 10.53555,-6.13599 18.15528,-9.47513 2.96894,-1.30106 6.03596,-2.3657 9.05394,-3.54855 11.62303,-3.75865 23.79302,-6.33669 36.0475,-6.66103 7.39277,-0.19567 9.90138,0.36416 17.16982,1.22651 15.20003,2.82808 30.66534,4.22412 45.89243,0.65331 2.3144,-0.54274 4.53341,-1.43254 6.80011,-2.1488 1.97231,-0.96727 4.01474,-1.80303 5.91692,-2.9018 0.14643,-0.0846 -0.55582,-0.15213 -0.43152,-0.2668 1.58097,-1.45837 3.39068,-2.64777 5.06062,-4.00334 5.41612,-4.3965 10.46292,-9.002892 15.38519,-13.940114 8.04932,-7.211964 11.4114,-18.442829 19.96933,-25.137273 1.73751,-1.359169 3.75586,-2.314872 5.63379,-3.472307 4.1597,-1.792479 8.16536,-3.996266 12.47912,-5.377436 3.0985,-0.992072 12.62602,-1.322129 15.6438,-1.392726 8.6892,-0.203273 17.40192,0.155149 26.09174,0.218545 10.99052,-0.01635 22.04705,-1.18596 32.07345,-6.00225 6.12456,-2.942002 5.77418,-1.19073 6.03744,-4.114444 11.63566,-8.541543 22.00467,-18.604051 30.97388,-29.888384 0,0 6.15241,-2.632523 6.15241,-2.632523 l 0,0 c -8.9368,11.350767 -19.31348,21.448453 -30.92027,30.077643 -3.36378,2.153643 -12.55885,8.385527 -17.47863,10.668374 -10.08219,4.678275 -21.16231,5.693175 -32.1394,5.737049 -8.69182,-0.06593 -17.41445,-0.423862 -26.10502,-0.161645 -2.71933,0.08205 -5.44249,0.176304 -8.14932,0.449327 -2.49941,0.252102 -4.93985,1.122192 -7.45194,1.124286 -0.49054,4.09e-4 -0.63853,-0.744851 -0.95779,-1.117276 -5.33524,3.123601 -6.18092,3.032785 -10.26555,7.705793 -5.66581,6.481943 -8.95987,14.876878 -15.41577,20.756157 -10.94427,11.085324 -22.91516,21.520304 -37.37559,27.747434 -2.25634,0.67103 -4.46998,1.50732 -6.769,2.0131 -15.27878,3.36131 -30.78456,2.00501 -46.01274,-0.79231 -7.27412,-0.83395 -9.67062,-1.37163 -17.0658,-1.14375 -12.21147,0.3763 -24.32644,2.97843 -35.89226,6.78547 -3.00082,1.19046 -6.05037,2.26478 -9.00247,3.57139 -7.42598,3.28677 -10.99881,5.5097 -18.10702,9.4833 -7.12794,3.98462 -14.37022,7.75033 -21.15899,12.3095 -5.48664,3.65819 -11.01094,7.26051 -16.46004,10.97439 -10.50405,7.15914 -20.53287,15.00309 -31.31959,21.74947 -9.57933,6.42878 -19.38532,12.23212 -29.40556,17.97387 -2.70307,1.5489 -5.44311,3.03239 -8.16466,4.54859 -0.77784,0.37806 -1.58223,0.70578 -2.33353,1.13418 -4.34189,2.47577 -8.626872,5.05004 -12.940307,7.57506 -10.582089,5.79348 -19.181013,14.07744 -25.462249,24.35096 -1.514444,2.18055 -6.09558,8.72048 -7.521343,10.99536 -1.133409,1.80841 -2.109742,3.71124 -3.214217,5.53747 -3.442671,5.69239 -7.263081,11.13327 -10.999644,16.63285 -1.24887,1.92619 -2.584867,3.79862 -3.746609,5.77859 -0.630467,1.0745 -5.780132,11.06615 -6.310181,12.0788 -2.109355,4.0299 -4.388347,7.97013 -6.466827,12.01603 -0.993061,1.93307 -1.87852,3.91954 -2.81778,5.87931 -3.901114,8.35257 -7.401704,16.90892 -7.508847,26.28396 0,0 -6.292561,3.20622 -6.292561,3.20622 z"
       inkscape:connector-curvature="0"
       transform="translate(72.139331,17.77484)" />
  </g>
</svg>
